<svg xmlns="http://www.w3.org/2000/svg" viewBox="0 0 1260 780" width="100%" height="100%">
  <defs>
    <style>
      .txt { font-family: -apple-system, BlinkMacSystemFont, "Segoe UI", Roboto, Helvetica, Arial, sans-serif; }
      .bold { font-weight: 700; }
      .heavy { font-weight: 800; }
      .med { font-weight: 500; }
      .reg { font-weight: 400; }
    </style>
    <filter id="focal-glow" x="-10%" y="-10%" width="120%" height="120%">
      <feDropShadow dx="0" dy="2" stdDeviation="6" flood-color="#1d9bf0" flood-opacity="0.25" />
    </filter>
  </defs>

  <!-- Background -->
  <rect width="1260" height="780" fill="#000000" />

  <!-- =========================================================================
       COLUMN 1: Left Navigation (~240px)
       ========================================================================= -->
  <g transform="translate(36, 18)">
    <!-- X Logo (Official monochrome geometry) -->
    <path d="M18.244 2.25h3.308l-7.227 8.26 8.502 11.24H16.17l-5.214-6.817L4.99 21.75H1.68l7.73-8.835L1.254 2.25H8.08l4.713 6.231zm-1.161 17.52h1.833L7.084 4.126H5.117z" fill="#ffffff" transform="scale(1.2)" />

    <!-- Navigation Items -->
    <!-- Home (Active) -->
    <g transform="translate(0, 62)">
      <path d="M12 1.696L.622 8.807l1.06 1.696L3 9.679V20a2 2 0 002 2h5v-6h4v6h5a2 2 0 002-2V9.679l1.318.824 1.06-1.696L12 1.696zM17 18h-1v-4a2 2 0 00-2-2h-4a2 2 0 00-2 2v4H7V8.428l5-3.125 5 3.125V18z" fill="#ffffff" />
      <text x="38" y="18" fill="#ffffff" font-size="19" class="txt heavy">Home</text>
    </g>
    <!-- Explore -->
    <g transform="translate(0, 116)">
      <path d="M10.25 3.75c-3.59 0-6.5 2.91-6.5 6.5s2.91 6.5 6.5 6.5c1.47 0 2.82-.49 3.91-1.31l4.97 4.97 1.41-1.41-4.97-4.97c.82-1.09 1.31-2.44 1.31-3.91 0-3.59-2.91-6.5-6.5-6.5zm-4.5 6.5c0-2.48 2.02-4.5 4.5-4.5s4.5 2.02 4.5 4.5-2.02 4.5-4.5 4.5-4.5-2.02-4.5-4.5z" fill="#e7e9ea" />
      <text x="38" y="18" fill="#e7e9ea" font-size="19" class="txt reg">Explore</text>
    </g>
    <!-- Notifications -->
    <g transform="translate(0, 170)">
      <path d="M19.993 9.042C19.48 5.017 16.054 2 11.996 2s-7.49 3.021-7.999 7.051L2.866 18H7.1c.463 2.282 2.481 4 4.9 4s4.437-1.718 4.9-4h4.236l-1.143-8.958zM12 20c-1.306 0-2.417-.835-2.829-2h5.658c-.412 1.165-1.523 2-2.829 2zm-6.866-4l.847-6.643C6.34 6.745 8.924 4 12 4s5.66 2.745 6.02 5.357L18.866 16H5.134z" fill="#e7e9ea" />
      <text x="38" y="18" fill="#e7e9ea" font-size="19" class="txt reg">Notifications</text>
    </g>
    <!-- Messages -->
    <g transform="translate(0, 224)">
      <path d="M1.998 5.5c0-1.381 1.119-2.5 2.5-2.5h15c1.381 0 2.5 1.119 2.5 2.5v13c0 1.381-1.119 2.5-2.5 2.5h-15c-1.381 0-2.5-1.119-2.5-2.5v-13zm2.5-.5c-.276 0-.5.224-.5.5v2.764l8 5.333 8-5.333V5.5c0-.276-.224-.5-.5-.5h-15zm15.5 5.463l-7.555 5.037c-.27.18-.62.18-.89 0L3.998 10.463V18.5c0 .276.224.5.5.5h15c.276 0 .5-.224.5-.5v-8.037z" fill="#e7e9ea" />
      <text x="38" y="18" fill="#e7e9ea" font-size="19" class="txt reg">Messages</text>
    </g>
    <!-- Grok -->
    <g transform="translate(0, 278)">
      <path d="M2.5 3h4.6l7.5 11.2L20.8 3h4.7L16.2 16.5 25.5 21h-4.6l-8-11.8L4.2 21H-.5l9.5-13.8L2.5 3z" fill="#e7e9ea" transform="scale(0.85)" />
      <text x="38" y="18" fill="#e7e9ea" font-size="19" class="txt reg">Grok</text>
    </g>
    <!-- Bookmarks -->
    <g transform="translate(0, 332)">
      <path d="M4 4.5C4 3.12 5.119 2 6.5 2h11C18.881 2 20 3.12 20 4.5v16.74c0 .65-.74 1.04-1.28.67L12 17.07l-6.72 4.84c-.54.37-1.28-.02-1.28-.67V4.5zM6.5 4c-.276 0-.5.22-.5.5v14.56l5.42-3.9a1 1 0 011.16 0l5.42 3.9V4.5c0-.28-.224-.5-.5-.5h-11z" fill="#e7e9ea" />
      <text x="38" y="18" fill="#e7e9ea" font-size="19" class="txt reg">Bookmarks</text>
    </g>
    <!-- Profile -->
    <g transform="translate(0, 386)">
      <path d="M12 11.815c1.94 0 3.5-1.56 3.5-3.5s-1.56-3.5-3.5-3.5-3.5 1.56-3.5 3.5 1.56 3.5 3.5 3.5zM7 8.315c0-2.76 2.24-5 5-5s5 2.24 5 5-2.24 5-5 5-5-2.24-5-5zm10.5 7.5h-11c-2.485 0-4.5 2.015-4.5 4.5v1.5h20v-1.5c0-2.485-2.015-4.5-4.5-4.5z" fill="#e7e9ea" />
      <text x="38" y="18" fill="#e7e9ea" font-size="19" class="txt reg">Profile</text>
    </g>

    <!-- Post Button -->
    <rect y="450" width="200" height="50" rx="25" fill="#1d9bf0" />
    <text x="100" y="482" fill="#ffffff" font-size="17" class="txt bold" text-anchor="middle">Post</text>
  </g>

  <!-- Left Divider -->
  <line x1="260" y1="0" x2="260" y2="780" stroke="#2f3336" stroke-width="1" />

  <!-- =========================================================================
       COLUMN 2: Middle Timeline (Width 580px, exactly like X)
       ========================================================================= -->
  <g transform="translate(260, 0)">
    <!-- Top Header: For you / Following Tabs -->
    <rect width="580" height="53" fill="#000000" fill-opacity="0.85" />
    <line x1="0" y1="53" x2="580" y2="53" stroke="#2f3336" stroke-width="1" />
    
    <!-- Tab 1: For you (Active with blue underline) -->
    <text x="145" y="33" fill="#e7e9ea" font-size="15" class="txt bold" text-anchor="middle">For you</text>
    <rect x="105" y="49" width="80" height="4" rx="2" fill="#1d9bf0" />

    <!-- Tab 2: Following -->
    <text x="435" y="33" fill="#71767b" font-size="15" class="txt bold" text-anchor="middle">Following</text>

    <!-- Post 1: Background Tweet -->
    <g transform="translate(16, 68)">
      <circle cx="20" cy="20" r="20" fill="#334155" />
      <text x="20" y="26" fill="#94a3b8" font-size="13" class="txt bold" text-anchor="middle">TL</text>
      <text x="52" y="16" fill="#e7e9ea" font-size="15" class="txt bold">Tech Leader</text>
      <text x="146" y="16" fill="#71767b" font-size="14" class="txt reg">@tech_lead · 4h</text>
      <text x="52" y="38" fill="#e7e9ea" font-size="14.5" class="txt reg">Exploring the future of web extension interfaces and native-like desktop ergonomics...</text>
    </g>
    <line x1="0" y1="135" x2="580" y2="135" stroke="#2f3336" stroke-width="1" />

    <!-- Post 2: ACTIVE FOCAL TWEET (Clicked by SideX!) -->
    <g transform="translate(8, 145)" filter="url(#focal-glow)">
      <!-- Real .sidepeek-focal-active border & background -->
      <rect width="564" height="315" rx="8" fill="#09141f" stroke="#1d9bf0" stroke-width="2" stroke-opacity="0.85" />
      
      <g transform="translate(16, 16)">
        <!-- Avatar -->
        <circle cx="20" cy="20" r="20" fill="#0284c7" />
        <text x="20" y="26" fill="#ffffff" font-size="14" class="txt bold" text-anchor="middle">AR</text>

        <!-- Author Header -->
        <text x="52" y="16" fill="#e7e9ea" font-size="15" class="txt bold">Alex Rivera</text>
        <!-- Official X Verified Checkmark Badge -->
        <path d="M22.25 12c0-1.43-.88-2.67-2.19-3.34.46-1.39.2-2.9-.81-3.91s-2.52-1.27-3.91-.81c-.67-1.31-1.91-2.19-3.34-2.19s-2.67.88-3.33 2.19c-1.4-.46-2.91-.2-3.92.81s-1.26 2.52-.8 3.91c-1.31.67-2.2 1.91-2.2 3.34s.89 2.67 2.2 3.34c-.46 1.39-.21 2.9.8 3.91s2.52 1.26 3.91.81c.67 1.31 1.91 2.19 3.34 2.19s2.67-.88 3.34-2.19c1.39.45 2.9.2 3.91-.81s1.27-2.52.81-3.91c1.31-.67 2.19-1.91 2.19-3.34zm-11.71 4.2L6.8 12.46l1.41-1.42 2.26 2.26 4.8-5.23 1.47 1.36-6.2 6.77z" fill="#1d9bf0" transform="translate(142, 2) scale(0.75)" />
        <text x="168" y="16" fill="#71767b" font-size="14" class="txt reg">@arivera_design · 2h</text>

        <!-- Expanded Tweet Text -->
        <text x="52" y="44" fill="#e7e9ea" font-size="14.5" class="txt reg">
          <tspan x="52" dy="0">Excited to introduce SideX - an immersive in-place comment drawer for X!</tspan>
          <tspan x="52" dy="24">Click any tweet to dock comments directly into the 3rd column without leaving your timeline.</tspan>
          <tspan x="52" dy="24">Supports full conversation trees, sub-thread drill-down, and inline clipboard pasting 🚀</tspan>
        </text>

        <!-- Card Embed -->
        <rect x="52" y="125" width="480" height="100" rx="12" fill="#16181c" stroke="#2f3336" stroke-width="1" />
        <rect x="64" y="137" width="76" height="76" rx="8" fill="#1e293b" />
        <text x="102" y="182" fill="#38bdf8" font-size="28" text-anchor="middle">⚡</text>
        <text x="156" y="168" fill="#e7e9ea" font-size="15" class="txt bold">SideX - In-Place Comment Stream</text>
        <text x="156" y="192" fill="#71767b" font-size="13" class="txt reg">github.com/UncleK/SideX · Manifest V3</text>

        <!-- Action Row (Real X Phosphor SVGs) -->
        <g transform="translate(52, 260)" fill="#71767b" font-size="13" class="txt reg">
          <!-- Reply -->
          <g transform="translate(0, 0)">
            <path d="M1.751 10c0-4.42 3.584-8 8.005-8h4.366c4.49 0 8.129 3.64 8.129 8.13 0 2.96-1.607 5.68-4.196 7.11l-8.054 4.46v-3.69h-.249c-4.42 0-8.001-3.58-8.001-8zm8.005-6c-3.317 0-6.005 2.69-6.005 6 0 3.32 2.688 6 6.005 6h2.249v2.22l4.981-2.76c1.947-1.08 3.16-3.13 3.16-5.33 0-3.39-2.744-6.13-6.129-6.13H9.756z" fill="#71767b" transform="scale(0.8) translate(0, -14)" />
            <text x="22" y="0">86</text>
          </g>
          <!-- Repost -->
          <g transform="translate(90, 0)">
            <path d="M4.5 3.88l4.432 4.14-1.364 1.46L5.5 7.55V16c0 1.1.896 2 2 2H13v2H7.5c-2.209 0-4-1.79-4-4V7.55L1.432 9.48.068 8.02 4.5 3.88zM16.5 20.12l-4.432-4.14 1.364-1.46 2.068 1.93V8c0-1.1-.896-2-2-2H11V4h2.5c2.209 0 4 1.79 4 4v8.45l2.068-1.93 1.364 1.46-4.432 4.14z" fill="#71767b" transform="scale(0.8) translate(0, -14)" />
            <text x="22" y="0">124</text>
          </g>
          <!-- Like (Active pink) -->
          <g transform="translate(180, 0)" fill="#f91880">
            <path d="M12 21.638h-.014C9.403 21.59 1.95 14.856 1.95 8.478c0-3.064 2.525-5.754 5.403-5.754 2.29 0 3.83 1.58 4.646 2.73.814-1.148 2.354-2.73 4.645-2.73 2.88 0 5.404 2.69 5.404 5.755 0 6.376-7.454 13.11-10.037 13.157H12z" fill="#f91880" transform="scale(0.8) translate(0, -14)" />
            <text x="22" y="0">1.4k</text>
          </g>
          <!-- Bookmark -->
          <g transform="translate(270, 0)">
            <path d="M4 4.5C4 3.12 5.119 2 6.5 2h11C18.881 2 20 3.12 20 4.5v16.74c0 .65-.74 1.04-1.28.67L12 17.07l-6.72 4.84c-.54.37-1.28-.02-1.28-.67V4.5z" fill="#71767b" transform="scale(0.8) translate(0, -14)" />
            <text x="22" y="0">352</text>
          </g>
          <!-- Share -->
          <g transform="translate(360, 0)">
            <path d="M12 2.59l5.7 5.7-1.41 1.42L13 6.41V16h-2V6.41L7.71 9.71 6.3 8.29 12 2.59zM21 15l-.02 3.51c0 1.38-1.12 2.49-2.5 2.49H5.5C4.11 21 3 19.88 3 18.5V15h2v3.5c0 .28.22.5.5.5h12.98c.28 0 .5-.22.5-.5L19 15h2z" fill="#71767b" transform="scale(0.8) translate(0, -14)" />
          </g>
        </g>
      </g>
    </g>

    <!-- Post 3 -->
    <g transform="translate(16, 480)">
      <circle cx="20" cy="20" r="20" fill="#1e293b" />
      <text x="20" y="26" fill="#64748b" font-size="13" class="txt bold" text-anchor="middle">UI</text>
      <text x="52" y="16" fill="#e7e9ea" font-size="15" class="txt bold">Product Hunter</text>
      <text x="168" y="16" fill="#71767b" font-size="14" class="txt reg">@ph_daily · 6h</text>
      <text x="52" y="38" fill="#e7e9ea" font-size="14.5" class="txt reg">Clean split-column layout maximizes screen real-estate on desktop monitors without clutter.</text>
    </g>
  </g>

  <!-- Right Divider -->
  <line x1="840" y1="0" x2="840" y2="780" stroke="#2f3336" stroke-width="1" />

  <!-- =========================================================================
       COLUMN 3: REAL SideX Drawer (Width 420px, 1:1 matching sidebar.css)
       ========================================================================= -->
  <g transform="translate(840, 0)">
    <!-- Drawer Background -->
    <rect width="420" height="780" fill="#000000" />
    
    <!-- Resize Handle (Right edge) -->
    <rect x="-3" y="350" width="4" height="42" rx="2" fill="#1d9bf0" />

    <!-- Drawer Header (.sidepeek-header) -->
    <rect width="420" height="53" fill="#000000" />
    <line x1="0" y1="53" x2="420" y2="53" stroke="#2f3336" stroke-width="1" />
    <text x="20" y="34" fill="#e7e9ea" font-size="16" class="txt bold">SideX</text>
    <text x="68" y="34" fill="#71767b" font-size="13" class="txt med">(86)</text>
    
    <!-- Header Action Icons -->
    <g transform="translate(340, 16)" fill="#71767b">
      <!-- External Open -->
      <path d="M224,104a8,8,0,0,1-16,0V59.32l-66.33,66.34a8,8,0,0,1-11.32-11.32L196.68,48H152a8,8,0,0,1,0-16h64a8,8,0,0,1,8,8Zm-40,24a8,8,0,0,0-8,8v72H48V80h72a8,8,0,0,0,0-16H48A16,16,0,0,0,32,80V208a16,16,0,0,0,16,16H176a16,16,0,0,0,16-16V136A8,8,0,0,0,184,128Z" transform="scale(0.08)" />
      <!-- Close Button (✕) -->
      <path d="M205.66,194.34a8,8,0,0,1-11.32,11.32L128,139.31,61.66,205.66a8,8,0,0,1-11.32-11.32L116.69,128,50.34,61.66A8,8,0,0,1,61.66,50.34L128,116.69l66.34-66.35a8,8,0,0,1,11.32,11.32L139.31,128Z" transform="translate(32, 0) scale(0.08)" />
    </g>

    <!-- Thread Group 1 (.sidepeek-thread-group) -->
    <g transform="translate(16, 68)">
      <!-- Parent Comment (.sidepeek-comment-item) -->
      <circle cx="18" cy="18" r="18" fill="#e11d48" />
      <text x="18" y="23" fill="#ffffff" font-size="12" class="txt bold" text-anchor="middle">E</text>
      
      <!-- REAL Thread Line (.sidepeek-thread-line) -->
      <line x1="18" y1="42" x2="18" y2="300" stroke="#2f3336" stroke-width="2" />

      <!-- Parent Header -->
      <text x="46" y="15" fill="#e7e9ea" font-size="14" class="txt bold">Elena Rostova</text>
      <path d="M22.25 12c0-1.43-.88-2.67-2.19-3.34.46-1.39.2-2.9-.81-3.91s-2.52-1.27-3.91-.81c-.67-1.31-1.91-2.19-3.34-2.19s-2.67.88-3.33 2.19c-1.4-.46-2.91-.2-3.92.81s-1.26 2.52-.8 3.91c-1.31.67-2.2 1.91-2.2 3.34s.89 2.67 2.2 3.34c-.46 1.39-.21 2.9.8 3.91s2.52 1.26 3.91.81c.67 1.31 1.91 2.19 3.34 2.19s2.67-.88 3.34-2.19c1.39.45 2.9.2 3.91-.81s1.27-2.52.81-3.91c1.31-.67 2.19-1.91 2.19-3.34zm-11.71 4.2L6.8 12.46l1.41-1.42 2.26 2.26 4.8-5.23 1.47 1.36-6.2 6.77z" fill="#1d9bf0" transform="translate(142, 2) scale(0.65)" />
      <text x="164" y="15" fill="#71767b" font-size="13" class="txt reg">@elena_ux · 1h</text>

      <!-- Comment Text -->
      <text x="46" y="38" fill="#e7e9ea" font-size="13.5" class="txt reg">
        <tspan x="46" dy="0">The in-place docked drawer feels so natural! Finally no more full-page redirects.</tspan>
        <tspan x="46" dy="20">Does it support conversation trees and nested sub-thread drill-down?</tspan>
      </text>

      <!-- Actions -->
      <g transform="translate(46, 85)" fill="#71767b" font-size="12" class="txt reg">
        <text x="0" y="0">💬 3</text>
        <text x="60" y="0">🔁 1</text>
        <text x="120" y="0" fill="#f91880">❤️ 42</text>
        <text x="180" y="0">🔖</text>
        <text x="240" y="0">↗️</text>
      </g>

      <!-- REAL INLINE ACCORDION COMPOSER (.sidepeek-inline-composer.expanded) -->
      <g transform="translate(46, 102)">
        <rect width="342" height="154" rx="12" fill="#16181c" stroke="#2f3336" stroke-width="1" />
        
        <!-- Textarea -->
        <text x="14" y="26" fill="#e7e9ea" font-size="13" class="txt reg">Absolutely! Reconstructs full nested hierarchies with dedicated branch drill-down 👇</text>

        <!-- Pasted Image Preview (.sidepeek-pasted-preview) -->
        <g transform="translate(14, 46)">
          <rect width="52" height="52" rx="6" fill="#1e293b" stroke="#2f3336" stroke-width="1" />
          <text x="26" y="32" font-size="18" text-anchor="middle">🎨</text>
          <!-- Delete badge -->
          <circle cx="46" cy="6" r="7" fill="#000000" fill-opacity="0.8" />
          <text x="46" y="9" fill="#ffffff" font-size="8" class="txt bold" text-anchor="middle">✕</text>
        </g>

        <!-- Composer Footer -->
        <line x1="0" y1="110" x2="342" y2="110" stroke="#2f3336" stroke-width="1" />
        <text x="14" y="134" fill="#71767b" font-size="11.5" class="txt reg">Press Ctrl+Enter to send</text>
        
        <text x="236" y="134" fill="#71767b" font-size="13" class="txt med">Cancel</text>
        <rect x="274" y="118" width="56" height="28" rx="14" fill="#1d9bf0" />
        <text x="302" y="136" fill="#ffffff" font-size="13" class="txt bold" text-anchor="middle">Reply</text>
      </g>

      <!-- Child Comment (Indented with reply-to tag) -->
      <g transform="translate(0, 276)">
        <circle cx="18" cy="18" r="16" fill="#0284c7" />
        <text x="18" y="23" fill="#ffffff" font-size="11" class="txt bold" text-anchor="middle">AR</text>

        <text x="46" y="14" fill="#e7e9ea" font-size="14" class="txt bold">Alex Rivera</text>
        <path d="M22.25 12c0-1.43-.88-2.67-2.19-3.34.46-1.39.2-2.9-.81-3.91s-2.52-1.27-3.91-.81c-.67-1.31-1.91-2.19-3.34-2.19s-2.67.88-3.33 2.19c-1.4-.46-2.91-.2-3.92.81s-1.26 2.52-.8 3.91c-1.31.67-2.2 1.91-2.2 3.34s.89 2.67 2.2 3.34c-.46 1.39-.21 2.9.8 3.91s2.52 1.26 3.91.81c.67 1.31 1.91 2.19 3.34 2.19s2.67-.88 3.34-2.19c1.39.45 2.9.2 3.91-.81s1.27-2.52.81-3.91c1.31-.67 2.19-1.91 2.19-3.34zm-11.71 4.2L6.8 12.46l1.41-1.42 2.26 2.26 4.8-5.23 1.47 1.36-6.2 6.77z" fill="#1d9bf0" transform="translate(132, 2) scale(0.6)" />
        <text x="152" y="14" fill="#71767b" font-size="12" class="txt reg">@arivera_design · 45m</text>
        
        <!-- Reply-to tag -->
        <text x="46" y="32" fill="#1d9bf0" font-size="12" class="txt reg">Replying to @elena_ux</text>

        <text x="46" y="52" fill="#e7e9ea" font-size="13.5" class="txt reg">
          <tspan x="46" dy="0">Displays top 2 nested replies inline, click below</tspan>
          <tspan x="46" dy="20">to drill into an isolated thread branch view!</tspan>
        </text>

        <!-- Drill-down Trigger (.sidepeek-drilldown-trigger) -->
        <text x="46" y="98" fill="#1d9bf0" font-size="13" class="txt med" cursor="pointer">↳ Show 2 more replies (Drill-down)</text>
      </g>
    </g>

    <!-- Divider between thread groups -->
    <line x1="0" y1="495" x2="420" y2="495" stroke="#2f3336" stroke-width="1" />

    <!-- Thread Group 2: Standalone Comment -->
    <g transform="translate(16, 515)">
      <circle cx="18" cy="18" r="18" fill="#10b981" />
      <text x="18" y="23" fill="#ffffff" font-size="12" class="txt bold" text-anchor="middle">MV</text>
      <text x="46" y="15" fill="#e7e9ea" font-size="14" class="txt bold">Marcus Vance</text>
      <text x="148" y="15" fill="#71767b" font-size="13" class="txt reg">@marcus_v · 30m</text>
      <text x="46" y="38" fill="#e7e9ea" font-size="13.5" class="txt reg">Clipboard image pasting with Ctrl+V is brilliant. Replying with memes is instant.</text>
      <g transform="translate(46, 62)" fill="#71767b" font-size="12" class="txt reg">
        <text x="0" y="0">💬 1</text>
        <text x="60" y="0" fill="#f91880">❤️ 9</text>
      </g>
    </g>
  </g>
</svg>